<svg width="92" height="92" viewBox="0 0 92 92" fill="none" xmlns="http://www.w3.org/2000/svg">
<rect width="92" height="92" rx="12" fill="url(#paint0_linear_54_441)"/>
<path d="M69.2639 32C68.876 32 68.5684 31.8716 68.341 31.6149C68.1137 31.3581 68 31.0135 68 30.5811V15.4189C68 14.9865 68.1137 14.6419 68.341 14.3851C68.5684 14.1284 68.876 14 69.2639 14H76.8071C77.4223 14 77.9841 14.0946 78.4923 14.2838C79.0139 14.473 79.4552 14.75 79.8164 15.1149C80.1908 15.4797 80.4784 15.9324 80.679 16.473C80.893 17.0135 81 17.6351 81 18.3378V27.6622C81 28.3784 80.893 29.0068 80.679 29.5473C80.4784 30.0878 80.1908 30.5405 79.8164 30.9054C79.4552 31.2703 79.0139 31.5405 78.4923 31.7162C77.9841 31.9054 77.4223 32 76.8071 32H69.2639ZM74.6806 27.0743C74.9347 27.0743 75.1219 26.9932 75.2423 26.8311C75.376 26.6554 75.4697 26.4122 75.5231 26.1014C75.6034 25.6419 75.6636 25.1486 75.7037 24.6216C75.7438 24.0811 75.7639 23.5405 75.7639 23C75.7639 22.4595 75.7438 21.9257 75.7037 21.3986C75.6636 20.8716 75.6034 20.3716 75.5231 19.8986C75.4563 19.5878 75.3627 19.3514 75.2423 19.1892C75.1219 19.0135 74.9347 18.9257 74.6806 18.9257H73.4568C73.6975 20.2905 73.8112 21.6486 73.7978 23C73.7978 24.3514 73.6842 25.7095 73.4568 27.0743H74.6806Z" fill="white"/>
<path d="M66.9512 30.6216C67.0442 31.0405 67.0043 31.3716 66.8316 31.6149C66.659 31.8716 66.38 32 65.9948 32H62.9064C62.5212 32 62.1891 31.8716 61.9102 31.6149C61.6312 31.3716 61.4519 31.0405 61.3722 30.6216L60.4756 26.3851H59.3996V30.5811C59.3996 31.0135 59.2867 31.3581 59.0609 31.6149C58.8351 31.8716 58.5296 32 58.1444 32H55.2553C54.8701 32 54.5645 31.8716 54.3387 31.6149C54.1129 31.3581 54 31.0135 54 30.5811V15.4189C54 14.9865 54.1129 14.6419 54.3387 14.3851C54.5645 14.1284 54.8701 14 55.2553 14H62.9662C64.2148 14 65.1845 14.3649 65.8752 15.0946C66.5793 15.8243 66.9313 16.9054 66.9313 18.3378V22.0473C66.9313 23.4662 66.5726 24.5473 65.8553 25.2905L66.9512 30.6216ZM60.8741 21.7027C61.1265 21.7027 61.3257 21.6824 61.4718 21.6419C61.6312 21.6014 61.7309 21.5 61.7707 21.3378C61.8504 21.027 61.8903 20.6757 61.8903 20.2838C61.8903 19.8919 61.8504 19.5608 61.7707 19.2905C61.6644 18.9122 61.3656 18.723 60.8741 18.723H59.3399C59.4329 19.1419 59.4793 19.6419 59.4793 20.223C59.4793 20.7905 59.4329 21.2838 59.3399 21.7027H60.8741Z" fill="white"/>
<path d="M51.9772 30.6014C52.038 31.0203 51.9772 31.3581 51.795 31.6149C51.625 31.8716 51.3639 32 51.0117 32H48.3518C47.9996 32 47.7081 31.8716 47.4773 31.6149C47.2465 31.3581 47.1008 31.0203 47.04 30.6014L46.8032 28.5135H44.1615L43.9429 30.6014C43.8943 31.0203 43.7547 31.3581 43.5239 31.6149C43.2931 31.8716 43.0016 32 42.6494 32H39.9895C39.6373 32 39.3701 31.8716 39.1879 31.6149C39.0179 31.3581 38.9632 31.0203 39.024 30.6014L41.028 15.3986C41.0887 14.9797 41.2405 14.6419 41.4835 14.3851C41.7264 14.1284 42.0239 14 42.3762 14H48.625C48.9773 14 49.2688 14.1284 49.4995 14.3851C49.7424 14.6419 49.8943 14.9797 49.955 15.3986L51.9772 30.6014ZM46.2931 23.8108L45.7465 18.7432H45.2547L44.6899 23.8108H46.2931Z" fill="white"/>
<path d="M38 27.7105C38 29.1269 37.6531 30.196 36.9592 30.9176C36.2784 31.6392 35.3293 32 34.1118 32H28.9079C27.6903 32 26.7346 31.6392 26.0408 30.9176C25.3469 30.196 25 29.1269 25 27.7105V18.2895C25 16.8731 25.3469 15.804 26.0408 15.0824C26.7346 14.3608 27.6903 14 28.9079 14H34.1118C35.3293 14 36.2784 14.3608 36.9592 15.0824C37.6531 15.804 38 16.8731 38 18.2895V27.7105ZM32.148 27.1292C32.4622 25.8196 32.6259 24.4633 32.639 23.0601C32.6652 21.6437 32.5277 20.2472 32.2266 18.8708H30.5967C30.8978 20.2205 31.0418 21.6036 31.0287 23.02C31.0156 24.4365 30.8716 25.8062 30.5967 27.1292H32.148Z" fill="white"/>
<path d="M12.2279 32C11.8511 32 11.5522 31.8716 11.3313 31.6149C11.1104 31.3581 11 31.0135 11 30.5811V15.4189C11 14.9865 11.1104 14.6419 11.3313 14.3851C11.5522 14.1284 11.8511 14 12.2279 14H20.5502C21.6417 14 22.4603 14.3108 23.006 14.9324C23.5517 15.5405 23.8246 16.4324 23.8246 17.6081V19.7365C23.8246 20.6824 23.6622 21.4054 23.3373 21.9054C23.0255 22.3919 22.5707 22.723 21.973 22.8986C22.7136 23.0608 23.2334 23.4189 23.5322 23.973C23.8441 24.5135 24 25.2568 24 26.2027V28.3919C24 29.5676 23.7271 30.4595 23.1814 31.0676C22.6357 31.6892 21.8171 32 20.7256 32H12.2279ZM17.8216 20.6892C18.0685 20.6892 18.2374 20.6554 18.3283 20.5878C18.4193 20.5203 18.4778 20.4189 18.5037 20.2838C18.5427 20.0541 18.5557 19.8243 18.5427 19.5946C18.5427 19.3514 18.5297 19.1284 18.5037 18.9257C18.4778 18.8176 18.4193 18.723 18.3283 18.6419C18.2374 18.5608 18.0685 18.5203 17.8216 18.5203H16.3208C16.3598 18.6554 16.3858 18.8176 16.3988 19.0068C16.4118 19.1959 16.4118 19.3986 16.3988 19.6149C16.3988 19.8176 16.3923 20.0135 16.3793 20.2027C16.3663 20.3919 16.3468 20.5541 16.3208 20.6892H17.8216ZM17.9775 27.4595C18.2244 27.4595 18.3868 27.4324 18.4648 27.3784C18.5557 27.3243 18.6142 27.2162 18.6402 27.0541C18.6662 26.9054 18.6792 26.7095 18.6792 26.4662C18.6922 26.2095 18.6857 26.0203 18.6597 25.8986C18.6337 25.6824 18.5752 25.527 18.4843 25.4324C18.3933 25.3378 18.2244 25.2905 17.9775 25.2905H16.3208C16.3598 25.4257 16.3858 25.5878 16.3988 25.777C16.4118 25.9662 16.4118 26.1689 16.3988 26.3851C16.3988 26.5878 16.3923 26.7838 16.3793 26.973C16.3663 27.1622 16.3468 27.3243 16.3208 27.4595H17.9775Z" fill="white"/>
<path d="M81 45.0768C81 46.1459 80.7096 46.9978 80.1288 47.6325C79.548 48.2673 78.7622 48.5846 77.7713 48.5846H70.8528C70.3061 48.5846 69.8791 48.4343 69.5716 48.1336C69.2641 47.7996 68.9737 47.4321 68.7003 47.0312C68.427 46.5969 68.1366 46.1626 67.8291 45.7283C67.5558 45.294 67.18 44.9766 66.7016 44.7762C66.5992 44.7428 66.4967 44.7261 66.3942 44.7261C66.3258 44.6927 66.2233 44.6759 66.0867 44.6759H62.9605C62.3455 44.6759 61.9014 44.8931 61.628 45.3274C61.3889 45.7283 61.2693 46.3129 61.2693 47.0813V63.9187C61.2693 64.6871 61.3889 65.2884 61.628 65.7227C61.9014 66.1236 62.3455 66.3241 62.9605 66.3241H65.5742C66.7017 66.2906 67.2654 65.4889 67.2654 63.9187V60.912H66.7016C65.745 60.912 64.9592 60.5947 64.3442 59.9599C63.7634 59.3252 63.473 58.4733 63.473 57.4042V54.7483C63.473 53.6793 63.7634 52.8274 64.3442 52.1926C64.9592 51.5579 65.745 51.2405 66.7016 51.2405H77.7713C78.7622 51.2405 79.548 51.5579 80.1288 52.1926C80.7096 52.8274 81 53.6793 81 54.7483V67.2762C81 70.8174 80.0946 73.49 78.2838 75.294C76.5072 77.098 74.0131 78 70.8015 78H57.7331C54.5557 78 52.0616 77.098 50.2508 75.294C48.4401 73.49 47.5347 70.8174 47.5347 67.2762V43.7238C47.5347 40.1826 48.4401 37.51 50.2508 35.706C52.0616 33.902 54.5557 33 57.7331 33H70.8015C74.0131 33 76.5072 33.902 78.2838 35.706C80.0946 37.51 81 40.1826 81 43.7238V45.0768Z" fill="white"/>
<path d="M44.4653 45.0768C44.4653 46.1459 44.1749 46.9978 43.5941 47.6325C43.0133 48.2673 42.2275 48.5846 41.2367 48.5846H34.3181C33.7715 48.5846 33.3444 48.4343 33.0369 48.1336C32.7294 47.7996 32.439 47.4321 32.1657 47.0312C31.8924 46.5969 31.6019 46.1626 31.2945 45.7283C31.0211 45.294 30.6453 44.9766 30.167 44.7762C30.0645 44.7428 29.962 44.7261 29.8595 44.7261C29.7912 44.6927 29.6887 44.6759 29.552 44.6759H26.4258C25.8108 44.6759 25.3667 44.8931 25.0934 45.3274C24.8542 45.7283 24.7346 46.3129 24.7346 47.0813V63.9187C24.7346 64.6871 24.8542 65.2884 25.0934 65.7227C25.3667 66.1236 25.8108 66.3241 26.4258 66.3241H29.0395C30.167 66.2906 30.7307 65.4889 30.7307 63.9187V60.912H30.167C29.2103 60.912 28.4245 60.5947 27.8095 59.9599C27.2287 59.3252 26.9383 58.4733 26.9383 57.4042V54.7483C26.9383 53.6793 27.2287 52.8274 27.8095 52.1926C28.4245 51.5579 29.2103 51.2405 30.167 51.2405H41.2367C42.2275 51.2405 43.0133 51.5579 43.5941 52.1926C44.1749 52.8274 44.4653 53.6793 44.4653 54.7483V67.2762C44.4653 70.8174 43.56 73.49 41.7492 75.294C39.9725 77.098 37.4784 78 34.2669 78H21.1985C18.0211 78 15.527 77.098 13.7162 75.294C11.9054 73.49 11 70.8174 11 67.2762V43.7238C11 40.1826 11.9054 37.51 13.7162 35.706C15.527 33.902 18.0211 33 21.1985 33H34.2669C37.4784 33 39.9725 33.902 41.7492 35.706C43.56 37.51 44.4653 40.1826 44.4653 43.7238V45.0768Z" fill="white"/>
<defs>
<linearGradient id="paint0_linear_54_441" x1="46" y1="0" x2="46" y2="92" gradientUnits="userSpaceOnUse">
<stop stop-color="#0055FF"/>
<stop offset="1" stop-color="#3B9650"/>
</linearGradient>
</defs>
</svg>
